<?xml version="1.0" standalone="no"?>
<!DOCTYPE svg PUBLIC "-//W3C//DTD SVG 20010904//EN"
 "http://www.w3.org/TR/2001/REC-SVG-20010904/DTD/svg10.dtd">
<svg version="1.0" xmlns="http://www.w3.org/2000/svg"
 width="209.000000pt" height="205.000000pt" viewBox="0 0 209.000000 205.000000"
 preserveAspectRatio="xMidYMid meet">

<g transform="translate(0.000000,205.000000) scale(0.100000,-0.100000)"
fill="#000000" stroke="none">
<path d="M860 1905 c-416 -89 -708 -428 -727 -845 -16 -344 165 -660 478 -838
128 -72 350 -121 492 -107 224 22 416 112 568 266 115 117 184 235 235 404 25
81 27 105 27 240 0 134 -2 159 -26 238 -98 319 -332 546 -652 633 -83 22 -310
28 -395 9z m360 -156 c111 -28 210 -73 280 -126 2 -2 -106 -113 -240 -248
l-243 -243 -153 144 c-150 141 -153 144 -198 144 -79 0 -76 16 -76 -390 l0
-359 22 -15 c26 -18 80 -21 109 -6 18 10 19 24 19 277 l0 267 133 -132 c74
-73 140 -132 148 -132 8 0 73 59 144 130 71 72 133 130 137 130 5 0 8 -115 8
-255 0 -242 1 -256 20 -275 13 -13 33 -20 59 -20 73 0 71 -8 71 358 0 190 -4
333 -10 342 -7 12 9 34 72 97 l81 82 40 -52 c49 -65 99 -164 123 -242 14 -46
18 -93 18 -200 1 -125 -2 -149 -26 -225 -60 -186 -205 -365 -363 -447 -133
-69 -211 -88 -350 -88 -145 1 -221 18 -355 82 -81 39 -108 58 -180 132 -167
169 -238 348 -227 576 14 278 158 504 403 630 161 83 363 107 534 64z"/>
</g>
</svg>
